<svg width="68" height="22" viewBox="0 0 68 22" fill="none" xmlns="http://www.w3.org/2000/svg">
<rect width="68" height="22" rx="5" fill="black"/>
<path d="M16.65 14.661H27.31V15.558H16.65V14.661ZM21.421 12.152H22.487V15.038H21.421V12.152ZM17.95 6.12H25.984V9.682H19.042V12.035H17.976V8.824H24.918V7.004H17.95V6.12ZM17.976 11.58H26.257V12.464H17.976V11.58ZM29.766 6.497H37.332V7.381H29.766V6.497ZM28.609 14.401H39.23V15.298H28.609V14.401ZM36.747 6.497H37.813V7.68C37.813 8.174 37.8043 8.70267 37.787 9.266C37.7783 9.82067 37.7437 10.436 37.683 11.112C37.6223 11.788 37.5183 12.5507 37.371 13.4L36.279 13.283C36.435 12.4857 36.5433 11.7533 36.604 11.086C36.6733 10.4187 36.7123 9.80333 36.721 9.24C36.7383 8.67667 36.747 8.15667 36.747 7.68V6.497ZM49.122 5.262H50.201V13.842H49.122V5.262ZM42.648 15.87H50.565V16.754H42.648V15.87ZM42.648 12.971H43.727V16.169H42.648V12.971ZM43.896 6.081C44.4853 6.081 45.0096 6.20233 45.469 6.445C45.9283 6.68767 46.2923 7.03 46.561 7.472C46.8296 7.90533 46.964 8.40367 46.964 8.967C46.964 9.53033 46.8296 10.033 46.561 10.475C46.2923 10.9083 45.9283 11.2507 45.469 11.502C45.0096 11.7447 44.4853 11.866 43.896 11.866C43.3153 11.866 42.791 11.7447 42.323 11.502C41.8636 11.2507 41.4996 10.9083 41.231 10.475C40.9623 10.033 40.828 9.53033 40.828 8.967C40.828 8.40367 40.9623 7.90533 41.231 7.472C41.4996 7.03 41.8636 6.68767 42.323 6.445C42.791 6.20233 43.3153 6.081 43.896 6.081ZM43.896 7.017C43.5146 7.017 43.1723 7.09933 42.869 7.264C42.5656 7.42867 42.323 7.65833 42.141 7.953C41.9676 8.24767 41.881 8.58567 41.881 8.967C41.881 9.357 41.9676 9.69933 42.141 9.994C42.323 10.28 42.5656 10.5053 42.869 10.67C43.1723 10.8347 43.5146 10.917 43.896 10.917C44.2773 10.917 44.6196 10.8347 44.923 10.67C45.235 10.5053 45.4776 10.28 45.651 9.994C45.8243 9.69933 45.911 9.357 45.911 8.967C45.911 8.58567 45.8243 8.24767 45.651 7.953C45.4776 7.65833 45.235 7.42867 44.923 7.264C44.6196 7.09933 44.2773 7.017 43.896 7.017Z" fill="white"/>
</svg>
