<svg width="80" height="92" viewBox="0 0 80 92" fill="none" xmlns="http://www.w3.org/2000/svg">
<path d="M11.4286 5.71436C5.125 5.71436 0 10.8394 0 17.1429V74.2858C0 80.5894 5.125 85.7144 11.4286 85.7144H28.9643V59.6786H19.5357V45.7144H28.9643V39.6965C28.9643 24.1429 36 16.9286 51.2857 16.9286C54.1786 16.9286 59.1786 17.5001 61.2321 18.0715V30.7144C60.1607 30.6072 58.2857 30.5358 55.9464 30.5358C48.4464 30.5358 45.5536 33.3751 45.5536 40.7501V45.7144H60.4821L57.9107 59.6786H45.5357V85.7144H68.5714C74.875 85.7144 80 80.5894 80 74.2858V17.1429C80 10.8394 74.875 5.71436 68.5714 5.71436H11.4286Z" fill="#666666"/>
</svg>
