<svg width="80" height="92" viewBox="0 0 80 92" fill="none" xmlns="http://www.w3.org/2000/svg">
<path d="M34.7143 37.8036C33.6743 38.4989 32.7814 39.3923 32.0866 40.4327C31.3918 41.473 30.9088 42.6401 30.665 43.8671C30.1727 46.3453 30.6851 48.9175 32.0893 51.0179C33.4935 53.1184 35.6746 54.5749 38.1528 55.0672C40.6309 55.5595 43.2032 55.0472 45.3036 53.6429C47.404 52.2387 48.8606 50.0576 49.3528 47.5794C49.8451 45.1013 49.3328 42.5291 47.9286 40.4286C46.5243 38.3282 44.3432 36.8717 41.8651 36.3794C39.3869 35.8871 36.8147 36.3994 34.7143 37.8036ZM60.125 25.5894C59.1964 24.6608 58.0714 23.9286 56.8393 23.4465C53.6071 22.1786 46.5536 22.2322 42 22.2858C41.2679 22.2858 40.5893 22.3036 40 22.3036C39.4107 22.3036 38.7143 22.3036 37.9643 22.2858C33.4107 22.2322 26.3929 22.1608 23.1607 23.4465C21.9286 23.9286 20.8214 24.6608 19.875 25.5894C18.9286 26.5179 18.2143 27.6429 17.7321 28.8751C16.4643 32.1072 16.5357 39.1786 16.5714 43.7322C16.5714 44.4644 16.5893 45.1429 16.5893 45.7144C16.5893 46.2858 16.5893 46.9644 16.5714 47.6965C16.5357 52.2501 16.4643 59.3215 17.7321 62.5536C18.2143 63.7858 18.9464 64.8929 19.875 65.8394C20.8036 66.7858 21.9286 67.5001 23.1607 67.9822C26.3929 69.2501 33.4464 69.1965 38 69.1429C38.7321 69.1429 39.4107 69.1251 40 69.1251C40.5893 69.1251 41.2857 69.1251 42.0357 69.1429C46.5893 69.1965 53.6071 69.2679 56.8393 67.9822C58.0714 67.5001 59.1786 66.7679 60.125 65.8394C61.0714 64.9108 61.7857 63.7858 62.2679 62.5536C63.5536 59.3394 63.4821 52.3036 63.4286 47.7322C63.4286 46.9822 63.4107 46.2858 63.4107 45.6965C63.4107 45.1072 63.4107 44.4286 63.4286 43.6608C63.4821 39.1072 63.5536 32.0715 62.2679 28.8394C61.7857 27.6072 61.0536 26.5001 60.125 25.5536V25.5894ZM48.1429 33.5358C51.3728 35.6954 53.6126 39.0497 54.3694 42.8607C55.1263 46.6717 54.3382 50.6273 52.1786 53.8572C51.1092 55.4565 49.7354 56.8296 48.1354 57.8979C46.5354 58.9663 44.7407 59.709 42.8537 60.0838C39.0427 60.8406 35.0871 60.0526 31.8571 57.8929C28.6272 55.7357 26.3865 52.3837 25.628 48.5743C24.8694 44.765 25.6552 40.8104 27.8125 37.5804C29.9698 34.3505 33.3217 32.1098 37.1311 31.3512C40.9404 30.5927 44.895 31.3785 48.125 33.5358H48.1429ZM53.3571 33.3036C52.8036 32.9286 52.3571 32.3929 52.0893 31.7679C51.8214 31.1429 51.7679 30.4644 51.8929 29.7858C52.0179 29.1072 52.3571 28.5179 52.8214 28.0358C53.2857 27.5536 53.9107 27.2322 54.5714 27.1072C55.2321 26.9822 55.9286 27.0358 56.5536 27.3036C57.1786 27.5715 57.7143 28.0001 58.0893 28.5536C58.4643 29.1072 58.6607 29.7679 58.6607 30.4465C58.6607 30.8929 58.5714 31.3394 58.4107 31.7501C58.25 32.1608 57.9821 32.5358 57.6786 32.8572C57.375 33.1786 56.9821 33.4286 56.5714 33.6072C56.1607 33.7858 55.7143 33.8751 55.2679 33.8751C54.5893 33.8751 53.9286 33.6786 53.375 33.3036H53.3571ZM80 17.1429C80 10.8394 74.875 5.71436 68.5714 5.71436H11.4286C5.125 5.71436 0 10.8394 0 17.1429V74.2858C0 80.5894 5.125 85.7144 11.4286 85.7144H68.5714C74.875 85.7144 80 80.5894 80 74.2858V17.1429ZM63.75 69.4644C60.4107 72.8036 56.3571 73.8572 51.7857 74.0894C47.0714 74.3572 32.9286 74.3572 28.2143 74.0894C23.6429 73.8572 19.5893 72.8036 16.25 69.4644C12.9107 66.1251 11.8571 62.0715 11.6429 57.5001C11.375 52.7858 11.375 38.6429 11.6429 33.9286C11.875 29.3572 12.9107 25.3036 16.25 21.9644C19.5893 18.6251 23.6607 17.5715 28.2143 17.3572C32.9286 17.0894 47.0714 17.0894 51.7857 17.3572C56.3571 17.5894 60.4107 18.6251 63.75 21.9644C67.0893 25.3036 68.1429 29.3572 68.3571 33.9286C68.625 38.6251 68.625 52.7501 68.3571 57.4822C68.125 62.0536 67.0893 66.1072 63.75 69.4465V69.4644Z" fill="#666666"/>
</svg>
