<svg width="92" height="43" viewBox="0 0 92 43" fill="none" xmlns="http://www.w3.org/2000/svg">
<path d="M17.94 42.18H6.66C6 42.18 3.42 42.36 0.3 42.36C0.12 42.36 0.06 42.3 0 42.18C0.06 42.06 0.12 42 0.3 41.94C3 41.94 4.08 41.88 5.04 40.68C6.06 39.42 6.18 37.5 6.18 33.24V9.12C6.18 4.86 6.06 2.94 5.04 1.74C4.08 0.479997 3 0.419998 0.3 0.419998C0.12 0.419998 0.06 0.359999 0 0.239997C0.06 0.119998 0.12 0.0599992 0.3 0C3.42 0 6 0.179998 6.66 0.179998H17.64C25.74 0.179998 32.04 2.04 36.66 5.76C40.0629 8.45581 42.2289 11.9654 43.1339 16.2648C43.4576 17.8025 43.62 19.4413 43.62 21.18C43.62 22.9554 43.458 24.6243 43.1339 26.1865C42.2424 30.4845 40.1244 33.9757 36.78 36.66C32.28 40.32 25.98 42.18 17.94 42.18ZM10.5 41.58H17.58C24.12 41.58 29.28 39.72 33.18 36.06C37.08 32.34 39.06 27.36 39.06 21.18C39.06 15 37.08 10.08 33.12 6.42C29.16 2.7 23.88 0.84 17.28 0.84H10.44C10.14 2.82 9.96 5.94 9.96 10.08V32.22C9.96 36.42 10.14 39.54 10.5 41.58Z" fill="black"/>
<path fill-rule="evenodd" clip-rule="evenodd" d="M69.0953 42.18L70.0843 40.1514L72.2157 35.7792L88.5953 2.18L91.292 2.49461L71.792 42.4946L69.0953 42.18Z" fill="#050505"/>
<path fill-rule="evenodd" clip-rule="evenodd" d="M43.1339 16.2648C43.4576 17.8025 43.62 19.4413 43.62 21.18C43.62 22.9554 43.458 24.6243 43.1339 26.1865V33.24C43.1339 37.5 43.0139 39.42 41.9939 40.68C41.0339 41.88 39.9539 41.94 37.2539 41.94C37.0739 42 37.0139 42.06 36.9539 42.18C37.0139 42.3 37.0739 42.36 37.2539 42.36C40.3739 42.36 42.9539 42.18 43.6139 42.18H46.1939C47.0939 42.18 50.8139 42.36 55.1939 42.36C55.7939 42.36 55.6739 41.88 55.1939 41.88C51.2939 41.88 49.9139 41.76 48.4739 40.5C47.0939 39.12 46.9139 37.02 46.9139 32.4V22.86H47.8139C53.2739 22.86 57.2939 23.4 59.9339 24.54C62.6339 25.68 64.6739 27.96 66.1139 31.44L67.7339 35.34C68.691 37.5842 69.4054 39.1325 70.0843 40.1514L72.2157 35.7792C72.006 35.3268 71.7317 34.7185 71.3339 33.84L69.3539 29.52C66.8339 24.48 63.0539 22.92 57.2339 22.44C67.2539 21.3 73.0139 17.4 73.0139 11.16C73.0139 3.84 66.7739 0.179998 54.2939 0.179998H43.6139C42.9539 0.179998 40.3739 0 37.2539 0C37.0739 0.0599992 37.0139 0.119998 36.9539 0.239997C37.0139 0.359999 37.0739 0.419998 37.2539 0.419998C39.9539 0.419998 41.0339 0.479997 41.9939 1.74C43.0139 2.94 43.1339 4.86 43.1339 9.12V16.2648ZM47.3939 1.14H54.1139C63.7739 1.14 68.3939 3.9 68.3939 11.1C68.3939 18.48 61.3139 22.2 49.2539 22.2H46.9139V8.1C46.9139 4.62 47.0939 2.28 47.3939 1.14Z" fill="#050505"/>
</svg>
