<svg width="220" height="110" viewBox="0 0 220 110" fill="none" xmlns="http://www.w3.org/2000/svg">
<path d="M113.004 58.9508H105.748V70.3413C105.748 71.6912 106.929 72.7881 108.364 72.7881C109.545 72.7881 110.726 72.7881 111.992 72.7037C112.92 72.6194 113.764 72.535 114.523 72.4506V70.51C113.848 70.6788 113.089 70.7631 112.414 70.8475C111.401 70.9319 110.389 70.9319 109.376 70.9319C108.87 70.9319 108.448 70.51 108.448 70.0881V61.0601H113.004V58.9508ZM130.807 66.2069C134.773 66.2069 138.738 66.2069 142.788 66.2069V64.3507C139.16 64.3507 135.532 64.3507 131.904 64.3507C131.398 64.3507 130.976 63.9288 130.976 63.507V62.9164H142.451V57.8539H128.107V59.7101H139.666V61.0601H128.191V63.6757C128.276 65.1101 129.457 66.2069 130.807 66.2069ZM117.982 66.9663H120.682V78.2724H123.213V57.6008H120.682V64.9413H117.982V57.9383H115.451V77.5974H117.982V66.9663ZM129.541 69.3288V71.6069H131.82C131.06 72.0287 130.47 72.535 130.048 73.21C129.626 73.885 129.373 74.4756 129.373 75.235C129.373 75.8256 129.541 76.4162 129.795 76.9224C130.132 77.4287 130.554 77.9349 131.145 78.3568C131.651 78.7787 132.326 79.1161 133.085 79.2849C133.845 79.538 134.688 79.6224 135.532 79.6224C136.376 79.6224 137.135 79.538 137.895 79.2849C138.654 79.0318 139.244 78.6943 139.835 78.3568C140.426 77.9349 140.848 77.5131 141.185 76.9224C141.523 76.4162 141.691 75.8256 141.691 75.235C141.691 74.56 141.438 73.885 141.016 73.21C140.594 72.535 139.919 72.0287 139.16 71.6069H141.354V69.3288H145.826V67.3882H124.901V69.3288H129.541ZM138.485 69.3288V71.2694C138.063 71.1006 137.557 70.9319 137.051 70.8475C136.545 70.7631 136.038 70.6788 135.448 70.6788C134.857 70.6788 134.351 70.7631 133.76 70.8475C133.254 70.9319 132.748 71.1006 132.326 71.3538V69.4131H138.485V69.3288ZM132.241 75.0662C132.241 74.3912 132.579 73.8006 133.17 73.2944C133.76 72.7881 134.52 72.535 135.448 72.535C136.291 72.535 137.051 72.7881 137.726 73.2944C138.401 73.8006 138.654 74.3912 138.654 75.0662C138.654 75.7412 138.316 76.3318 137.726 76.8381C137.135 77.3443 136.376 77.5974 135.448 77.5974C134.52 77.5974 133.76 77.3443 133.17 76.8381C132.579 76.3318 132.241 75.8256 132.241 75.0662Z" fill="white" fill-opacity="0.5"/>
<path d="M175.272 78.441C179.153 78.441 183.119 78.441 187 78.441V76.5004C183.456 76.5004 179.913 76.5004 176.369 76.5004C175.863 76.5004 175.441 76.0785 175.441 75.6567V74.7285H186.578V69.2442H172.656V71.1848H183.794V72.8723H172.656C172.656 73.8848 172.656 74.9817 172.656 75.9942C172.741 77.3441 173.922 78.441 175.272 78.441Z" fill="white" fill-opacity="0.5"/>
<path d="M154.01 78.2723C157.807 78.2723 161.688 78.2723 165.485 78.2723V76.2474C162.026 76.2474 158.566 76.2474 155.107 76.2474C154.601 76.2474 154.179 75.8255 154.179 75.4036V71.438H151.394V75.8255C151.394 77.1755 152.576 78.2723 154.01 78.2723Z" fill="white" fill-opacity="0.5"/>
<path d="M148.272 58.5288V60.5538H155.613C155.444 61.3975 155.107 62.3256 154.685 63.1694C154.179 64.0131 153.588 64.8568 152.744 65.6162C151.985 66.3756 151.057 67.1349 149.96 67.7255C148.947 68.4005 147.766 68.9068 146.5 69.413L148.694 70.8474C150.044 70.3411 151.225 69.6661 152.407 68.9068C153.588 68.1474 154.6 67.3037 155.529 66.2912C156.457 65.2787 157.216 64.1818 157.722 62.9162C158.313 61.6506 158.65 60.1319 158.735 58.5288H148.272Z" fill="white" fill-opacity="0.5"/>
<path d="M157.807 66.0381H162.363C162.363 66.0381 160.02 71.5612 162.363 72.5349C163.337 72.9395 165.063 72.5349 165.063 72.5349V57.5163H162.363V64.0131H157.807V66.0381Z" fill="white" fill-opacity="0.5"/>
<path d="M176.285 57.7695H173.416V60.3007C173.416 61.0601 173.247 61.8195 172.91 62.4944C172.572 63.1694 172.15 63.8444 171.56 64.3507C170.969 64.9413 170.378 65.4475 169.619 65.9538C168.86 66.46 168.185 66.7975 167.341 67.135L169.366 68.6537C170.547 68.1475 171.644 67.4725 172.572 66.6288C173.5 65.8694 174.26 65.0257 174.766 64.0975C175.188 64.9413 175.863 65.7007 176.791 66.3757C177.719 67.135 178.731 67.7256 179.913 68.3162L182.022 66.7132C181.263 66.3757 180.503 65.9538 179.828 65.5319C179.153 65.11 178.478 64.6038 177.972 64.0132C177.466 63.5069 177.044 62.8319 176.707 62.2413C176.369 61.5663 176.2 60.8913 176.2 60.132V57.7695H176.285Z" fill="white" fill-opacity="0.5"/>
<path d="M183.878 68.4006H186.663V57.5163H183.878V60.9757H179.238V63.0006H183.878V68.4006Z" fill="white" fill-opacity="0.5"/>
<path fill-rule="evenodd" clip-rule="evenodd" d="M102.204 48.0662C102.204 59.6255 81.4483 79.369 61.9579 79.369C41.7081 79.369 29.2208 56.0818 34.0301 44.0163C42.6363 22.8384 102.204 25.8759 102.204 48.0662ZM61.1145 40.0506C61.9583 40.4724 62.3801 40.8099 63.0551 41.738C63.5614 42.413 64.2364 43.6786 64.4051 44.9442H71.2394C72.6738 44.9442 73.855 46.1255 73.855 47.5598C73.855 48.9942 72.6738 50.1754 71.2394 50.1754H64.4895V54.2254C64.4895 54.5629 64.4895 54.9847 64.4051 55.3222H67.5269C73.18 55.3222 75.0362 62.4097 75.1206 63.844H80.9424C80.9424 61.2284 79.0862 56.4191 76.3862 53.9723C78.4112 52.5379 79.7612 50.2598 79.7612 47.5598C79.7612 43.2568 76.3019 39.7974 71.9988 39.7974H60.5239L61.1145 40.0506ZM57.4862 39.7975H42.2989V60.3847H57.4862C59.1736 60.3847 60.608 59.7941 61.7892 58.5285C62.9705 57.2629 63.5611 55.8285 63.5611 54.0567V50.0911V47.5599V46.1255C63.5611 44.3536 62.9705 42.9193 61.7892 41.6537C60.608 40.4725 59.1736 39.7975 57.4862 39.7975ZM57.4862 55.6598C57.908 55.6598 58.2455 55.491 58.583 55.2379C58.8361 54.9004 59.0049 54.5629 59.0049 54.141V46.2099C59.0049 45.8724 58.8361 45.5349 58.583 45.2818C58.3299 45.0286 57.9924 44.7755 57.7393 44.6911H57.5705H57.4018H46.7707V55.7441H57.4862V55.6598Z" fill="url(#paint0_linear_1648_3196)"/>
<defs>
<linearGradient id="paint0_linear_1648_3196" x1="67.6021" y1="29.6699" x2="67.6021" y2="79.369" gradientUnits="userSpaceOnUse">
<stop stop-color="white"/>
<stop offset="1" stop-color="white" stop-opacity="0"/>
</linearGradient>
</defs>
</svg>
