<svg width="80" height="22" viewBox="0 0 80 22" fill="none" xmlns="http://www.w3.org/2000/svg">
<rect width="80" height="22" rx="5" fill="black"/>
<path d="M25.217 5.249H26.296V17.014H25.217V5.249ZM21.772 6.523H22.838C22.838 7.37233 22.734 8.19133 22.526 8.98C22.3267 9.76867 22.0103 10.5183 21.577 11.229C21.1437 11.931 20.5803 12.5853 19.887 13.192C19.1937 13.7987 18.353 14.3403 17.365 14.817L16.793 13.946C17.9283 13.4 18.8643 12.763 19.601 12.035C20.3377 11.307 20.8837 10.4967 21.239 9.604C21.5943 8.70267 21.772 7.732 21.772 6.692V6.523ZM17.339 6.523H22.227V7.394H17.339V6.523ZM29.116 13.283H30.039C30.7583 13.283 31.417 13.2743 32.015 13.257C32.613 13.2397 33.1893 13.205 33.744 13.153C34.3073 13.101 34.8837 13.023 35.473 12.919L35.577 13.803C34.979 13.907 34.394 13.9893 33.822 14.05C33.25 14.102 32.6563 14.1367 32.041 14.154C31.4343 14.1713 30.767 14.18 30.039 14.18H29.116V13.283ZM29.116 6.315H34.589V7.212H30.195V13.595H29.116V6.315ZM29.922 9.617H34.329V10.488H29.922V9.617ZM36.565 5.249H37.644V17.014H36.565V5.249ZM37.397 9.968H39.568V10.878H37.397V9.968ZM49.174 5.249H50.24V17.027H49.174V5.249ZM46.08 9.617H49.486V10.501H46.08V9.617ZM41.036 6.172H42.115V9.227H45.378V6.172H46.431V14.063H41.036V6.172ZM42.115 10.085V13.179H45.378V10.085H42.115ZM52.514 11.762H63.148V12.633H52.514V11.762ZM53.892 15.87H62.03V16.754H53.892V15.87ZM53.892 13.491H54.958V16.195H53.892V13.491ZM53.918 9.825H61.9V10.67H53.918V9.825ZM53.918 5.691H61.835V6.536H54.997V10.15H53.918V5.691ZM54.672 7.745H61.523V8.577H54.672V7.745Z" fill="white"/>
</svg>
