<svg class="mobile-community" xmlns="http://www.w3.org/2000/svg" xmlns:xlink="http://www.w3.org/1999/xlink" x="0px" y="0px" viewBox="420 610 43 43" style="enable-background:new 420 610 43 43;" xml:space="preserve">
    <style>
        .mobile-community-path{stroke:#1c1c1c;stroke-width:0.5;stroke-miterlimit:10;}
    </style>
    <g>
        <path class="mobile-community-path" d="M452.333,618.014h-20.959
            c-2.067,0-3.744,1.677-3.751,3.744v14.893c0,2.067,1.677,3.744,3.744,3.751h6.088l3.759,5.878c0.135,0.217,0.374,0.344,0.629,0.337
            l0,0c0.255,0,0.494-0.127,0.629-0.344l3.721-5.871h6.14c2.067-0.008,3.744-1.685,3.744-3.751v-14.893
            C456.07,619.692,454.4,618.014,452.333,618.014z M454.58,636.652c0,1.243-1.011,2.254-2.246,2.254h-6.537
            c-0.255,0-0.494,0.127-0.636,0.344l-3.31,5.227l-3.347-5.227c-0.135-0.217-0.374-0.344-0.629-0.344h-6.507
            c-1.243-0.008-2.246-1.011-2.246-2.254v-14.893c0-1.243,1.011-2.246,2.246-2.246h20.959c1.243,0,2.246,1.003,2.254,2.246V636.652z"
            />
        <path class="mobile-community-path" d="M435.71,627.749h5.541c0.412,0,0.749-0.337,0.749-0.749
            s-0.337-0.749-0.749-0.749h-5.541c-0.412,0-0.749,0.337-0.749,0.749S435.298,627.749,435.71,627.749z"/>
        <path class="mobile-community-path" d="M447.99,629.995h-12.28c-0.412,0-0.749,0.337-0.749,0.749
            c0,0.412,0.337,0.749,0.749,0.749h12.28c0.412,0,0.749-0.337,0.749-0.749C448.739,630.332,448.402,629.995,447.99,629.995z"/>
    </g>
</svg>
