<svg class="mobile-franchise" xmlns="http://www.w3.org/2000/svg" xmlns:xlink="http://www.w3.org/1999/xlink" x="0px" y="0px" viewBox="419 613 44 40" style="enable-background:new 419 613 44 40;" xml:space="preserve">
    <path d="M454.095,620.758c-0.11-0.446-0.512-0.758-0.97-0.758h-26c-0.458,0-0.86,0.312-0.97,0.758l-2,8
        c-0.02,0.078-0.03,0.16-0.03,0.242c0,1.676,0.794,3.154,2,4.062V647c0,0.552,0.448,1,1,1h10c0.552,0,1-0.448,1-1v-7h4v7
        c0,0.552,0.448,1,1,1h10c0.552,0,1-0.448,1-1v-13.938c1.206-0.908,2-2.386,2-4.062c0-0.082-0.01-0.164-0.03-0.242L454.095,620.758z
        M427.907,622h24.438l1.78,7.116c-0.058,1.6-1.27,2.884-2.75,2.884c-1.516,0-2.75-1.346-2.75-3c0-0.552-0.448-1-1-1s-1,0.448-1,1
        c0,1.654-1.234,3-2.75,3s-2.75-1.346-2.75-3c0-0.552-0.448-1-1-1s-1,0.448-1,1c0,1.654-1.234,3-2.75,3s-2.75-1.346-2.75-3
        c0-0.552-0.448-1-1-1s-1,0.448-1,1c0,1.654-1.234,3-2.75,3c-1.48,0-2.692-1.284-2.748-2.884L427.907,622z M452.125,646h-8v-7
        c0-0.552-0.448-1-1-1h-6c-0.552,0-1,0.448-1,1v7h-8v-12.08c0.246,0.042,0.494,0.08,0.75,0.08c1.524,0,2.88-0.758,3.75-1.934
        c0.87,1.176,2.226,1.934,3.75,1.934s2.88-0.758,3.75-1.934c0.87,1.176,2.226,1.934,3.75,1.934s2.88-0.758,3.75-1.934
        c0.87,1.176,2.226,1.934,3.75,1.934c0.256,0,0.504-0.038,0.75-0.08V646z"/>
</svg>
