<svg class="mobile-menu" xmlns="http://www.w3.org/2000/svg" xmlns:xlink="http://www.w3.org/1999/xlink" x="0px" y="0px" viewBox="0 0 107.276 137.89" style="enable-background:new 0 0 107.276 137.89;" xml:space="preserve">
    <g>
        <path d="M89.896,28.586H89.58l0.1-1.079c0.002-0.023,0.004-0.047,0.006-0.07c0.31-4.371-1.102-8.697-3.78-11.571
            c-2.055-2.206-4.715-3.421-7.489-3.421c-0.002,0-0.004,0-0.005,0l-50.472,0.021c-2.775,0.001-5.436,1.217-7.492,3.424
            c-2.678,2.875-4.092,7.201-3.783,11.571c0.001,0.024,0.004,0.047,0.006,0.072l0.099,1.079c-4.121,0.313-7.38,3.763-7.38,7.964
            v4.897c0,4.406,3.583,7.99,7.989,7.99h1.315l6.734,72.983c0.156,1.7,1.583,3,3.29,3h0.001l48.871-0.021
            c1.706-0.001,3.131-1.3,3.288-2.999l6.766-72.963h2.252c4.405,0,7.989-3.584,7.989-7.989v-4.898
            C97.885,32.17,94.301,28.586,89.896,28.586L89.896,28.586z M25.283,20.394c0.561-0.602,1.478-1.321,2.66-1.321l50.473-0.021h0.001
            c1.179,0,2.094,0.717,2.655,1.317c1.443,1.549,2.199,4.001,2.024,6.565l-0.153,1.652h-59.54l-0.149-1.624
            C23.081,24.398,23.838,21.945,25.283,20.394L25.283,20.394z M76.89,93.882H29.428l-2.624-28.443h52.723L76.89,93.882z
            M31.731,118.835l-1.692-18.345h46.238l-1.7,18.327L31.731,118.835z M80.14,58.832H26.195l-0.864-9.37h55.678L80.14,58.832z
            M91.278,41.473c0,0.761-0.619,1.382-1.382,1.382H17.379c-0.762,0-1.382-0.621-1.382-1.382v-4.898c0-0.761,0.619-1.382,1.382-1.382
            h72.517c0.761,0,1.382,0.621,1.382,1.382V41.473z M91.278,41.473"/>
    </g>
</svg>
