<svg xmlns="http://www.w3.org/2000/svg" xmlns:xlink="http://www.w3.org/1999/xlink" x="0px" y="0px" viewBox="0 0 50 50" style="enable-background:new 0 0 50 50;" xml:space="preserve">
<path style="fill:#111111;" d="M25.861,12.275c-0.475-0.475-1.246-0.475-1.722,0l-7.304,7.304c-0.475,0.476-0.475,1.246,0,1.722
	c0.476,0.476,1.246,0.476,1.722,0l0.357-0.356v4.365c0,0.673,0.545,1.217,1.217,1.217h9.739c0.673,0,1.217-0.545,1.217-1.217v-4.365
	l0.357,0.357c0.475,0.475,1.246,0.475,1.722,0c0.475-0.476,0.475-1.246,0-1.722L25.861,12.275z M28.652,24.092h-2.435v-1.217
	c0-0.673-0.545-1.217-1.217-1.217s-1.217,0.545-1.217,1.217v1.217h-2.435V18.51L25,14.858l3.652,3.652V24.092z M25,4.615
	c-8.055,0-14.608,6.553-14.608,14.608c0,2.46,0.623,4.892,1.802,7.034c0.008,0.016,0.018,0.031,0.027,0.047L23.96,45.583
	c0.221,0.363,0.615,0.584,1.04,0.584s0.819-0.222,1.04-0.584l11.739-19.279c0.009-0.015,0.018-0.031,0.027-0.046
	c1.179-2.142,1.802-4.575,1.802-7.034C39.608,11.168,33.055,4.615,25,4.615L25,4.615z M35.685,25.061L25,42.609L14.315,25.061
	c-0.974-1.778-1.488-3.796-1.488-5.838c0-6.712,5.461-12.173,12.173-12.173s12.173,5.461,12.173,12.173
	C37.173,21.264,36.659,23.282,35.685,25.061L35.685,25.061z M35.685,25.061"/>
</svg>
