<svg width="599" height="277" viewBox="0 0 599 277" fill="none" xmlns="http://www.w3.org/2000/svg">
<path d="M116.532 273.957H43.261C38.9739 273.957 22.2151 275.126 1.94869 275.126C0.779477 275.126 0.389739 274.736 0 273.957C0.389739 273.177 0.779477 272.788 1.94869 272.398C19.4869 272.398 26.5022 272.008 32.738 264.214C39.3636 256.031 40.1431 243.56 40.1431 215.892V59.2339C40.1431 31.5654 39.3636 19.0951 32.738 11.3012C26.5022 3.11756 19.4869 2.72786 1.94869 2.72786C0.779477 2.72786 0.389739 2.33817 0 1.55877C0.389739 0.779383 0.779477 0.389692 1.94869 0C22.2151 0 38.9739 1.16907 43.261 1.16907H114.583C167.198 1.16907 208.12 13.2497 238.13 37.4109C260.234 54.92 274.304 77.7146 280.182 105.639C282.285 115.626 283.34 126.27 283.34 137.563C283.34 149.094 282.287 159.933 280.182 170.08C274.391 197.995 260.634 220.67 238.91 238.105C209.679 261.876 168.757 273.957 116.532 273.957ZM68.2043 270.06H114.193C156.675 270.06 190.192 257.979 215.525 234.208C240.858 210.046 253.72 177.702 253.72 137.563C253.72 97.4241 240.858 65.469 215.136 41.6975C189.413 17.5363 155.116 5.45575 112.245 5.45575H67.8145C65.8658 18.3157 64.6966 38.5799 64.6966 65.469V209.267C64.6966 236.546 65.8658 256.81 68.2043 270.06Z" fill="#FF792E"/>
<path fill-rule="evenodd" clip-rule="evenodd" d="M451.819 276.957L459.242 262.781L473.087 234.384L585.484 8.15898L599 8.20233L465.335 277L451.819 276.957Z" fill="#FF792E"/>
<path fill-rule="evenodd" clip-rule="evenodd" d="M280.182 105.639C282.285 115.626 283.34 126.27 283.34 137.563C283.34 149.094 282.287 159.933 280.182 170.08V215.892C280.182 243.56 279.403 256.031 272.777 264.214C266.542 272.008 259.526 272.398 241.988 272.398C240.819 272.788 240.429 273.177 240.039 273.957C240.429 274.736 240.819 275.126 241.988 275.126C262.254 275.126 279.013 273.957 283.3 273.957H300.059C305.905 273.957 330.069 275.126 358.52 275.126C362.417 275.126 361.638 272.008 358.52 272.008C333.187 272.008 324.223 271.229 314.869 263.045C305.905 254.082 304.736 240.443 304.736 210.436V148.474H310.582C346.048 148.474 372.161 151.982 389.309 159.386C406.848 166.79 420.099 181.599 429.452 204.201L439.975 229.531C446.192 244.107 454.833 256.163 459.242 262.781L473.087 234.384C471.568 237.5 465.944 225.494 463.36 219.789L450.498 191.731C434.129 158.996 409.576 148.864 371.771 145.746C436.857 138.342 474.272 113.012 474.272 72.4836C474.272 24.9406 433.739 1.16907 352.674 1.16907H283.3C279.013 1.16907 262.254 0 241.988 0C240.819 0.389692 240.429 0.779383 240.039 1.55877C240.429 2.33817 240.819 2.72786 241.988 2.72786C259.526 2.72786 266.542 3.11756 272.777 11.3012C279.403 19.0951 280.182 31.5654 280.182 59.2339V105.639ZM307.854 7.40423H351.505C414.253 7.40423 444.262 25.3303 444.262 72.0939C444.262 120.027 398.273 144.188 319.936 144.188H304.736V52.609C304.736 30.0066 305.905 14.8085 307.854 7.40423Z" fill="#FF792E"/>
</svg>
